<svg xmlns="http://www.w3.org/2000/svg" xmlns:xlink="http://www.w3.org/1999/xlink" width="28" height="28" viewBox="0 0 28 28">
  <defs>
    <linearGradient id="linear-gradient" y1="0.5" x2="1" y2="0.5" gradientUnits="objectBoundingBox">
      <stop offset="0" stop-color="#ff7655"/>
      <stop offset="1" stop-color="#ffdc2a"/>
    </linearGradient>
  </defs>
  <g id="btm_jobs" transform="translate(-30 -766)">
    <circle id="Ellipse_47" data-name="Ellipse 47" cx="14" cy="14" r="14" transform="translate(30 766)" fill="#b3b3b3"/>
    <circle id="Ellipse_10999" data-name="Ellipse 10999" cx="12" cy="12" r="12" transform="translate(32 768)" fill="#fff"/>
    <g id="Group_111162" data-name="Group 111162" transform="translate(27 761)">
      <path id="Path_281324" data-name="Path 281324" d="M13.22,14.66v.7a.28.28,0,0,1-.56,0v-.7H12.1a2.1,2.1,0,0,0-2.1,2.1v.51a.7.7,0,0,0,.434.648l3.542,1.452a4.06,4.06,0,0,1,6.047,0l3.542-1.452A.7.7,0,0,0,24,17.27v-.51a2.1,2.1,0,0,0-2.1-2.1h-.56v.7a.28.28,0,1,1-.56,0v-.7A2.66,2.66,0,0,0,18.12,12H15.88A2.66,2.66,0,0,0,13.22,14.66Zm6.44,0v.7a.28.28,0,1,1-.56,0v-.7H14.9v.7a.28.28,0,0,1-.56,0v-.7a1.54,1.54,0,0,1,1.54-1.54h2.24A1.54,1.54,0,0,1,19.66,14.66Z" fill-rule="evenodd"/>
      <path id="Path_281326" data-name="Path 281326" d="M13.624,58.636C11.84,57.9,10,57.13,10,57.13v6h3.613a4.094,4.094,0,0,1,.011-4.5Z" transform="translate(0 -38.812)"/>
      <path id="Path_281328" data-name="Path 281328" d="M87.739,63.132H84.125a4.062,4.062,0,0,0-.01-4.5c1.783-.739,3.624-1.506,3.624-1.506v6Z" transform="translate(-63.739 -38.812)"/>
      <path id="Path_281330" data-name="Path 281330" d="M53.96,76.98a.98.98,0,1,0-.98.98A.98.98,0,0,0,53.96,76.98Z" transform="translate(-36.12 -55.04)"/>
      <g id="Group_111161" data-name="Group 111161" transform="translate(13.5 18.58)">
        <path id="Path_281332" data-name="Path 281332" d="M38.5,59A3.5,3.5,0,1,1,35,62.5,3.5,3.5,0,0,1,38.5,59Zm1.129,4.233a1.54,1.54,0,1,0-.4.4l.539.539a.28.28,0,1,0,.4-.4Z" transform="translate(-35 -59)" fill-rule="evenodd" fill="url(#linear-gradient)"/>
      </g>
    </g>
  </g>
</svg>
