<svg xmlns="http://www.w3.org/2000/svg" xmlns:xlink="http://www.w3.org/1999/xlink" width="28" height="28" viewBox="0 0 28 28">
  <defs>
    <linearGradient id="linear-gradient" y1="0.5" x2="1" y2="0.5" gradientUnits="objectBoundingBox">
      <stop offset="0" stop-color="#ff7655"/>
      <stop offset="1" stop-color="#ffdc2a"/>
    </linearGradient>
  </defs>
  <g id="btm_events" transform="translate(-30 -766)">
    <circle id="Ellipse_47" data-name="Ellipse 47" cx="14" cy="14" r="14" transform="translate(30 766)" fill="#b3b3b3"/>
    <circle id="Ellipse_10999" data-name="Ellipse 10999" cx="12" cy="12" r="12" transform="translate(32 768)" fill="#fff"/>
    <g id="Group_111158" data-name="Group 111158" transform="translate(37.493 773.493)">
      <ellipse id="Ellipse_11000" data-name="Ellipse 11000" cx="4" cy="3.5" rx="4" ry="3.5" transform="translate(2.507 6.007)" fill="url(#linear-gradient)"/>
      <path id="Path_281322" data-name="Path 281322" d="M10.3,3.525a.813.813,0,0,0,.813-.813V.813a.813.813,0,1,0-1.627,0v1.9A.813.813,0,0,0,10.3,3.525Zm-7.592,0a.813.813,0,0,0,.813-.813V.813A.813.813,0,1,0,1.9.813v1.9A.813.813,0,0,0,2.711,3.525ZM0,12.744a.271.271,0,0,0,.271.271H12.744a.271.271,0,0,0,.271-.271V5.515H0ZM3.772,8.256a.271.271,0,0,1,.22-.184l1.6-.233.716-1.451a.272.272,0,0,1,.488,0l.716,1.451,1.6.23a.265.265,0,0,1,.149.456L8.1,9.655l.271,1.594a.272.272,0,0,1-.393.293l-1.429-.751-1.432.754a.274.274,0,0,1-.4-.293L5,9.655,3.837,8.527a.271.271,0,0,1-.065-.271Z"/>
      <path id="Path_281323" data-name="Path 281323" d="M12.744,7H11.659v.813a1.356,1.356,0,0,1-2.711,0V7H4.067v.813a1.356,1.356,0,0,1-2.711,0V7H.271A.271.271,0,0,0,0,7.271v2.8H13.015v-2.8A.271.271,0,0,0,12.744,7Z" transform="translate(0 -5.102)"/>
    </g>
  </g>
</svg>
