<svg xmlns="http://www.w3.org/2000/svg" xmlns:xlink="http://www.w3.org/1999/xlink" width="28" height="28" viewBox="0 0 28 28">
  <defs>
    <linearGradient id="linear-gradient" y1="0.5" x2="1" y2="0.5" gradientUnits="objectBoundingBox">
      <stop offset="0" stop-color="#ff7655"/>
      <stop offset="1" stop-color="#ffdc2a"/>
    </linearGradient>
  </defs>
  <g id="btm_home_active" transform="translate(-30 -766)">
    <circle id="Ellipse_47" data-name="Ellipse 47" cx="14" cy="14" r="14" transform="translate(30 766)" fill="#fff"/>
    <g id="Group_111151" data-name="Group 111151" transform="translate(32 768)">
      <path id="Path_281016" data-name="Path 281016" d="M390.422,262.105c.012.024.59.863,1.379,2.006.021-.026.042-.053.063-.076a7.932,7.932,0,0,1,2.9-2.137,7.829,7.829,0,0,1,6.932.365,7.745,7.745,0,0,0-9.656,1.924c-.034.042-.066.086-.1.127,1.737,2.519,4.353,6.291,4.353,6.291s.793,1.292,1.55,1.292c.714,0,1.185-.74,1.669-1.392,1.67-2.247,4.525-6.689,5.378-7.979.792-1.2.831-1.8.722-2.1a11.9,11.9,0,0,0-16.152.241C389.713,261.042,390.392,262.044,390.422,262.105Z" transform="translate(-385.668 -257.39)"/>
      <path id="Path_281017" data-name="Path 281017" d="M401.227,356.4a7.847,7.847,0,0,0-1.047,5.889,7.632,7.632,0,0,0,7.059,6.042c-.02-.83-.035-1.56-.035-1.8a4,4,0,0,0-.547-2.231C406.368,363.88,403.378,359.569,401.227,356.4Z" transform="translate(-395.411 -348.842)"/>
      <path id="Path_281018" data-name="Path 281018" d="M351.146,324.628c-.009-.344-.037-2.122-.063-3.16a8.075,8.075,0,0,1-5.947-3.216,8.187,8.187,0,0,1-1.5-3.353,8.34,8.34,0,0,1,.113-3.66,8.161,8.161,0,0,1,1.155-2.529c-1.041-1.536-1.858-2.766-2.025-3.085a1.706,1.706,0,0,1-.211-.614,12.225,12.225,0,0,0-2.912,12.015,12.049,12.049,0,0,0,9.028,8.35C348.811,325.026,349.836,324.667,351.146,324.628Z" transform="translate(-339.24 -301.375)"/>
      <path id="Path_281019" data-name="Path 281019" d="M512.513,305.611a.943.943,0,0,1-.069.7c-.712,1.164-7,10.494-7.355,11.088a3.694,3.694,0,0,0-.636,2.23c0,.393-.07,4.844-.084,5.559,1.3.034,2.333.311,2.4.654a12.059,12.059,0,0,0,8.668-8.432,12.225,12.225,0,0,0-2.922-11.8Z" transform="translate(-491.902 -301.929)"/>
      <path id="Path_281028" data-name="Path 281028" d="M447.31,352.556l3.488,4.738a.7.7,0,0,0,1.14-.009c.081-.137,4.506-6.375,4.506-6.375a20.129,20.129,0,0,1-2.643,2.373c-.453.193-.783.437-1.657-.477-.958-1-1.578-.931-2.035-.635s-.881.5-1.114.635A1.349,1.349,0,0,1,447.31,352.556Z" transform="translate(-439.15 -343.771)" fill="url(#linear-gradient)"/>
    </g>
  </g>
</svg>
