<svg xmlns="http://www.w3.org/2000/svg" xmlns:xlink="http://www.w3.org/1999/xlink" width="124.132" height="23.72" viewBox="0 0 124.132 23.72">
  <defs>
    <linearGradient id="linear-gradient" y1="0.5" x2="1.001" y2="0.5" gradientUnits="objectBoundingBox">
      <stop offset="0" stop-color="#ff7655"/>
      <stop offset="1" stop-color="#ffdc2a"/>
    </linearGradient>
    <linearGradient id="linear-gradient-2" x1="0" y1="0.5" x2="1" y2="0.5" xlink:href="#linear-gradient"/>
    <linearGradient id="linear-gradient-3" x1="0" y1="0.5" x2="1" y2="0.5" xlink:href="#linear-gradient"/>
  </defs>
  <g id="header_logo" transform="translate(0 0)">
    <g id="Group_111101" data-name="Group 111101" transform="translate(28.75 6)">
      <path id="Path_281020" data-name="Path 281020" d="M222.469,624.22l.25,3.721h-.25a4.712,4.712,0,0,0-1.429-2.406,3.483,3.483,0,0,0-2.228-.734,3.632,3.632,0,0,0-1.97.548,3.669,3.669,0,0,0-1.384,1.763,7.793,7.793,0,0,0-.5,3.012,6.382,6.382,0,0,0,.465,2.579,3.567,3.567,0,0,0,1.432,1.665,4.131,4.131,0,0,0,2.183.581,3.8,3.8,0,0,0,1.881-.456,6.241,6.241,0,0,0,1.791-1.813l.25.167a5.738,5.738,0,0,1-1.92,2.139,4.873,4.873,0,0,1-2.6.686,4.936,4.936,0,0,1-4.214-2.018,5.779,5.779,0,0,1-1.114-3.535,6.3,6.3,0,0,1,.734-3.01,5.328,5.328,0,0,1,2.023-2.128,5.46,5.46,0,0,1,2.812-.754,5.149,5.149,0,0,1,2.341.581,1.281,1.281,0,0,0,.484.178.538.538,0,0,0,.38-.153,1.259,1.259,0,0,0,.3-.606Z" transform="translate(-213.112 -624.219)" fill="url(#linear-gradient)"/>
      <path id="Path_281021" data-name="Path 281021" d="M283.885,626.318v4.329h2.406a1.952,1.952,0,0,0,1.25-.283,1.824,1.824,0,0,0,.468-1.309h.3v3.809h-.3a4.179,4.179,0,0,0-.225-1.024,1.017,1.017,0,0,0-.483-.446,2.455,2.455,0,0,0-1.017-.167h-2.4v3.613a3.329,3.329,0,0,0,.065.884.5.5,0,0,0,.226.25,1.369,1.369,0,0,0,.613.093h1.856a5.093,5.093,0,0,0,1.349-.128,2.012,2.012,0,0,0,.806-.516,6.162,6.162,0,0,0,1.026-1.508h.323l-.944,2.744H280.77v-.3h.388a1.542,1.542,0,0,0,.734-.186.681.681,0,0,0,.351-.388,3.829,3.829,0,0,0,.092-1.057v-7.1a2.354,2.354,0,0,0-.21-1.282,1.243,1.243,0,0,0-.967-.323h-.388v-.3H289.2l.12,2.4h-.313a3.784,3.784,0,0,0-.376-1.185,1.277,1.277,0,0,0-.609-.5,3.626,3.626,0,0,0-1.139-.122Z" transform="translate(-269.505 -625.469)"/>
      <path id="Path_281022" data-name="Path 281022" d="M354.939,636.665h-2.922l-3.7-5.118c-.275.012-.5.017-.666.017h-.225a1.613,1.613,0,0,1-.251-.013v3.18a2.24,2.24,0,0,0,.226,1.284,1.152,1.152,0,0,0,.921.356h.428v.3h-4.7v-.3h.413a1.118,1.118,0,0,0,1-.453,2.589,2.589,0,0,0,.167-1.187v-7.073a2.24,2.24,0,0,0-.226-1.284,1.187,1.187,0,0,0-.936-.355h-.413v-.3h3.984a9.463,9.463,0,0,1,2.571.255,2.942,2.942,0,0,1,1.4.936,2.433,2.433,0,0,1,.578,1.627,2.557,2.557,0,0,1-.658,1.751,3.705,3.705,0,0,1-2.038,1.049l2.259,3.14a5.665,5.665,0,0,0,1.332,1.437,3.365,3.365,0,0,0,1.454.453Zm-7.774-5.626h.453a3.559,3.559,0,0,0,2.361-.678,2.174,2.174,0,0,0,.794-1.728,2.254,2.254,0,0,0-.641-1.665,2.3,2.3,0,0,0-1.7-.641,7.188,7.188,0,0,0-1.267.153Z" transform="translate(-322.25 -625.469)"/>
      <path id="Path_281023" data-name="Path 281023" d="M416.705,626.318v4.329h2.406a1.962,1.962,0,0,0,1.25-.283,1.824,1.824,0,0,0,.468-1.309h.3v3.809h-.3a4.076,4.076,0,0,0-.226-1.024,1.011,1.011,0,0,0-.476-.445,2.442,2.442,0,0,0-1.016-.167h-2.406v3.611a3.329,3.329,0,0,0,.065.884.51.51,0,0,0,.225.25,1.383,1.383,0,0,0,.614.093h1.856a5.085,5.085,0,0,0,1.347-.128,2.017,2.017,0,0,0,.807-.509,6.162,6.162,0,0,0,1.029-1.505h.323l-.946,2.744H413.59v-.3h.388a1.542,1.542,0,0,0,.734-.186.686.686,0,0,0,.351-.388,3.829,3.829,0,0,0,.092-1.057v-7.114a2.354,2.354,0,0,0-.21-1.282,1.243,1.243,0,0,0-.967-.323h-.388v-.3h8.433l.122,2.4h-.315a3.673,3.673,0,0,0-.375-1.185,1.293,1.293,0,0,0-.609-.5,3.633,3.633,0,0,0-1.139-.122Z" transform="translate(-380.212 -625.469)"/>
      <path id="Path_281024" data-name="Path 281024" d="M483.285,636.59l-4.231-9.209v7.312a2.235,2.235,0,0,0,.218,1.259,1.212,1.212,0,0,0,.946.333h.386v.3h-3.809v-.3h.388a1.111,1.111,0,0,0,.984-.421,2.459,2.459,0,0,0,.178-1.177v-7.159a2.5,2.5,0,0,0-.167-1.051.894.894,0,0,0-.416-.391,2.227,2.227,0,0,0-.972-.156v-.3h3.1l3.971,8.564,3.906-8.564h3.1v.3h-.38a1.139,1.139,0,0,0-1,.42,2.435,2.435,0,0,0-.176,1.179v7.159a2.166,2.166,0,0,0,.226,1.259,1.207,1.207,0,0,0,.944.333h.38v.3h-4.64v-.3h.388a1.1,1.1,0,0,0,.984-.421,2.431,2.431,0,0,0,.178-1.177v-7.3l-4.221,9.209Z" transform="translate(-432.889 -625.394)"/>
      <path id="Path_281025" data-name="Path 281025" d="M575.384,624.215a4.962,4.962,0,0,1,3.691,1.618,5.587,5.587,0,0,1,1.562,4.039,5.748,5.748,0,0,1-1.573,4.141,5.261,5.261,0,0,1-7.607.04,5.77,5.77,0,0,1-1.537-4.162,5.539,5.539,0,0,1,1.775-4.254,5.241,5.241,0,0,1,3.69-1.422Zm-.155.589a2.886,2.886,0,0,0-2.356,1.089,6.154,6.154,0,0,0-1.109,3.973,6.5,6.5,0,0,0,1.145,4.124,2.83,2.83,0,0,0,2.331,1.1,3.18,3.18,0,0,0,2.547-1.2,5.9,5.9,0,0,0,1-3.794,6.631,6.631,0,0,0-1.106-4.189A2.981,2.981,0,0,0,575.229,624.8Z" transform="translate(-510.514 -624.214)"/>
      <path id="Path_281026" data-name="Path 281026" d="M639.79,625.72h2.97l6.691,8.2v-6.31a2.175,2.175,0,0,0-.226-1.26,1.207,1.207,0,0,0-.944-.333h-.38v-.3h3.809v.3h-.386a1.113,1.113,0,0,0-.986.42,2.463,2.463,0,0,0-.176,1.179v9.224h-.291l-7.216-8.814v6.74a2.235,2.235,0,0,0,.218,1.259,1.226,1.226,0,0,0,.944.333h.388v.3H640.4v-.3h.38a1.142,1.142,0,0,0,1-.421,2.431,2.431,0,0,0,.178-1.177v-7.605a5.048,5.048,0,0,0-.723-.734,2.693,2.693,0,0,0-.723-.333,2.593,2.593,0,0,0-.711-.072Z" transform="translate(-568.751 -625.469)"/>
      <path id="Path_281027" data-name="Path 281027" d="M724.449,625.72h3.814v.3h-.21a1.665,1.665,0,0,0-.614.185,2.436,2.436,0,0,0-.734.533,7.3,7.3,0,0,0-.814,1.13l-2.639,4.162v2.745a2.18,2.18,0,0,0,.225,1.259,1.262,1.262,0,0,0,.969.333h.355v.3h-4.645v-.3h.388a1.111,1.111,0,0,0,.984-.421,2.432,2.432,0,0,0,.178-1.177v-2.592l-3-4.584a9.9,9.9,0,0,0-.723-1.009,2.83,2.83,0,0,0-.787-.484,1.086,1.086,0,0,0-.468-.08v-.3h4.682v.3h-.243a1.407,1.407,0,0,0-.7.177.576.576,0,0,0-.32.533,2.525,2.525,0,0,0,.5,1.051l2.284,3.526,2.135-3.375a2.5,2.5,0,0,0,.484-1.13.714.714,0,0,0-.117-.4.786.786,0,0,0-.333-.28,1.645,1.645,0,0,0-.654-.1Z" transform="translate(-632.881 -625.469)" fill="url(#linear-gradient-2)"/>
    </g>
    <g id="Group_111100" data-name="Group 111100" transform="translate(0 0)">
      <g id="Group_111093" data-name="Group 111093">
        <path id="Path_281016" data-name="Path 281016" d="M390.419,262.05c.012.023.589.853,1.375,1.983.021-.026.041-.052.063-.075a7.894,7.894,0,0,1,6.4-2.733,7.814,7.814,0,0,1,3.405.981,7.8,7.8,0,0,0-6.85-.22,7.709,7.709,0,0,0-2.777,2.121c-.034.042-.065.084-.1.126,1.731,2.49,4.339,6.217,4.339,6.217s.79,1.277,1.545,1.277c.711,0,1.181-.732,1.664-1.376,1.665-2.22,4.511-6.61,5.362-7.885.79-1.183.828-1.778.72-2.071a11.939,11.939,0,0,0-16.1.238C389.712,261,390.389,261.989,390.419,262.05Z" transform="translate(-385.68 -257.39)"/>
        <path id="Path_281017" data-name="Path 281017" d="M401.223,356.4a7.7,7.7,0,0,0-1.044,5.82,7.589,7.589,0,0,0,7.037,5.971c-.02-.82-.035-1.542-.035-1.774a3.932,3.932,0,0,0-.545-2.2C406.348,363.793,403.367,359.532,401.223,356.4Z" transform="translate(-395.426 -348.93)"/>
        <path id="Path_281018" data-name="Path 281018" d="M351.109,324.4c-.009-.34-.037-2.1-.063-3.123a8.093,8.093,0,0,1-7.422-6.493,8.174,8.174,0,0,1,.113-3.618,8.033,8.033,0,0,1,1.152-2.5c-1.038-1.518-1.852-2.733-2.019-3.049a1.677,1.677,0,0,1-.21-.607,12,12,0,0,0,6.1,20.127C348.781,324.792,349.8,324.437,351.109,324.4Z" transform="translate(-339.24 -301.417)"/>
        <path id="Path_281019" data-name="Path 281019" d="M512.488,305.611a.925.925,0,0,1-.068.689c-.71,1.15-6.975,10.371-7.332,10.958a3.627,3.627,0,0,0-.634,2.2c0,.389-.07,4.788-.084,5.494,1.3.033,2.326.307,2.39.647a12,12,0,0,0,5.728-19.993Z" transform="translate(-491.94 -301.972)"/>
        <path id="Path_281028" data-name="Path 281028" d="M447.31,352.537l3.477,4.683a.7.7,0,0,0,1.137-.009c.081-.135,4.492-6.3,4.492-6.3a20.008,20.008,0,0,1-2.634,2.346c-.452.191-.781.432-1.651-.472-.955-.991-1.573-.92-2.029-.628s-.878.495-1.111.628A1.353,1.353,0,0,1,447.31,352.537Z" transform="translate(-439.175 -343.855)" fill="url(#linear-gradient-3)"/>
      </g>
    </g>
  </g>
</svg>
