<svg xmlns="http://www.w3.org/2000/svg" xmlns:xlink="http://www.w3.org/1999/xlink" width="16" height="16" viewBox="0 0 16 16"><defs><clipPath id="a"><path d="M0-682.665H16v16H0Z" transform="translate(0 682.665)" fill="none"/></clipPath></defs><g transform="translate(0 -0.002)"><g transform="translate(0 0.002)" clip-path="url(#a)"><path d="M0-158.366v.32a.366.366,0,0,0,.366.366H9.684a.366.366,0,0,0,.366-.366v-.32C10.049-163.434,0-163.434,0-158.366Z" transform="translate(5.716 168.556)" fill="none" stroke="#000" stroke-linecap="round" stroke-linejoin="round" stroke-miterlimit="10" stroke-width="0.6"/><path d="M-186.518-178.287l-3.921,1.358m-.556-4.082,4.637-1.555" transform="translate(192.491 191.12)" fill="none" stroke="#000" stroke-linecap="round" stroke-linejoin="round" stroke-miterlimit="10" stroke-width="0.6"/><path d="M0,0,0,0" transform="translate(14.424 9.704)" fill="none" stroke="#000" stroke-linecap="round" stroke-linejoin="round" stroke-miterlimit="10" stroke-width="0.6"/><path d="M0,0,0,0" transform="translate(12.951 9.704)" fill="none" stroke="#000" stroke-linecap="round" stroke-linejoin="round" stroke-miterlimit="10" stroke-width="0.6"/><path d="M0,0,0,0" transform="translate(11.477 9.704)" fill="none" stroke="#000" stroke-linecap="round" stroke-linejoin="round" stroke-miterlimit="10" stroke-width="0.6"/><path d="M0,0,0,0" transform="translate(10.003 9.704)" fill="none" stroke="#000" stroke-linecap="round" stroke-linejoin="round" stroke-miterlimit="10" stroke-width="0.6"/><path d="M0,0,0,0" transform="translate(8.529 9.704)" fill="none" stroke="#000" stroke-linecap="round" stroke-linejoin="round" stroke-miterlimit="10" stroke-width="0.6"/><path d="M0,0,0,0" transform="translate(7.056 9.704)" fill="none" stroke="#000" stroke-linecap="round" stroke-linejoin="round" stroke-miterlimit="10" stroke-width="0.6"/><path d="M0,0,0,0" transform="translate(13.688 8.583)" fill="none" stroke="#000" stroke-linecap="round" stroke-linejoin="round" stroke-miterlimit="10" stroke-width="0.6"/><path d="M0,0,0,0" transform="translate(12.213 8.583)" fill="none" stroke="#000" stroke-linecap="round" stroke-linejoin="round" stroke-miterlimit="10" stroke-width="0.6"/><path d="M0,0,0,0" transform="translate(10.738 8.581)" fill="none" stroke="#000" stroke-linecap="round" stroke-linejoin="round" stroke-miterlimit="10" stroke-width="0.6"/><path d="M0,0,0,0" transform="translate(9.264 8.581)" fill="none" stroke="#000" stroke-linecap="round" stroke-linejoin="round" stroke-miterlimit="10" stroke-width="0.6"/><path d="M0,0,0,0" transform="translate(7.788 8.579)" fill="none" stroke="#000" stroke-linecap="round" stroke-linejoin="round" stroke-miterlimit="10" stroke-width="0.6"/><path d="M-.076,0l0,0" transform="translate(11.552 7.463)" fill="none" stroke="#000" stroke-linecap="round" stroke-linejoin="round" stroke-miterlimit="10" stroke-width="0.6"/><path d="M-.076,0l0,0" transform="translate(10.079 7.463)" fill="none" stroke="#000" stroke-linecap="round" stroke-linejoin="round" stroke-miterlimit="10" stroke-width="0.6"/><path d="M-200.657,0h-4.649a.167.167,0,0,0-.167.166V.759a.762.762,0,0,0,.759.759h8.531a.762.762,0,0,0,.759-.759V.166A.167.167,0,0,0-195.59,0h-3.964" transform="translate(211.189 14.247)" fill="none" stroke="#000" stroke-linecap="round" stroke-linejoin="round" stroke-miterlimit="10" stroke-width="0.6"/><path d="M-211.713-54.3h-4.7a.384.384,0,0,1-.383-.383v-.537a.384.384,0,0,1,.383-.384h10.1a.384.384,0,0,1,.383.384v.537a.384.384,0,0,1-.383.383h-4.29" transform="translate(217.029 59.257)" fill="none" stroke="#000" stroke-linecap="round" stroke-linejoin="round" stroke-miterlimit="10" stroke-width="0.6"/><path d="M0-142.355v-2.258a.52.52,0,0,1,.393-.508l2.43-.634a.528.528,0,0,1,.641.376.527.527,0,0,1-.375.64l-2.039.531v1.853" transform="translate(5.322 146.007)" fill="none" stroke="#000" stroke-linecap="round" stroke-linejoin="round" stroke-miterlimit="10" stroke-width="0.6"/><path d="M-236.682-450.4h-3.734a.581.581,0,0,1-.549-.549l-1.4-10.261m9.746,0-.2,1.445" transform="translate(243.157 466.165)" fill="none" stroke="#000" stroke-linecap="round" stroke-linejoin="round" stroke-miterlimit="10" stroke-width="0.6"/><path d="M-359.31,0A1.079,1.079,0,0,1-361.1.955c-.069-.06-.091-.068-.155,0a1.013,1.013,0,0,1-.736.334,1.015,1.015,0,0,1-.736-.334c-.068-.061-.091-.068-.154,0a1.014,1.014,0,0,1-.737.334,1.013,1.013,0,0,1-.736-.334c-.063-.067-.087-.061-.155,0a1.013,1.013,0,0,1-.736.334,1.013,1.013,0,0,1-.736-.334c-.064-.067-.088-.06-.155,0A1.079,1.079,0,0,1-367.934,0" transform="translate(374.363 10.876)" fill="none" stroke="#000" stroke-linecap="round" stroke-linejoin="round" stroke-miterlimit="10" stroke-width="0.6"/><path d="M-34.708,0h-.122a.713.713,0,0,0-.711.711.713.713,0,0,0,.711.712h8.324A.714.714,0,0,0-25.8.711.714.714,0,0,0-26.506,0h-.122" transform="translate(41.409 11.749)" fill="none" stroke="#000" stroke-linecap="round" stroke-linejoin="round" stroke-miterlimit="10" stroke-width="0.6"/><path d="M-348.405-44.75v-1.074m-8.362,0v1.074" transform="translate(363.327 58.997)" fill="none" stroke="#000" stroke-linecap="round" stroke-linejoin="round" stroke-miterlimit="10" stroke-width="0.6"/></g></g></svg>