<svg id="sales_revenue" xmlns="http://www.w3.org/2000/svg" width="22.291" height="21.37" viewBox="0 0 22.291 21.37">
  <path id="Path_282165" data-name="Path 282165" d="M3.637,14.8A7.772,7.772,0,0,0,5.7,16.117L9.65,13.64a2.1,2.1,0,0,1,2.593.294L13.57,15.26A7.888,7.888,0,1,0,3.636,14.8ZM9.256,9.6H8.549a1.973,1.973,0,0,1-.344-3.916V4.951a.7.7,0,0,1,1.395,0v.7h.93a.7.7,0,0,1,0,1.395H8.549a.581.581,0,0,0,0,1.162h.707A1.973,1.973,0,0,1,9.6,12.121v.732a.7.7,0,0,1-1.395,0v-.7h-.93a.7.7,0,1,1,0-1.395h1.98a.581.581,0,0,0,0-1.162Z" transform="translate(-0.093 -1)" fill="#fff"/>
  <path id="Path_282166" data-name="Path 282166" d="M21.385,12H17.666a.93.93,0,0,0-.657,1.587l1.2,1.2-3.8,3.8-3.062-3.062a.93.93,0,0,0-1.146-.133L.442,21.437a.93.93,0,0,0,.978,1.581l9.135-5.655,3.2,3.2a.929.929,0,0,0,1.315,0L19.526,16.1l1.2,1.2a.93.93,0,0,0,1.587-.657V12.93A.93.93,0,0,0,21.385,12Z" transform="translate(-0.024 -1.773)" fill="#fff"/>
</svg>
